<?xml version="1.0" encoding="utf-8"?>
<svg version="1.0" xmlns="http://www.w3.org/2000/svg" width="500" height="500" viewBox="0 0 500 500" preserveAspectRatio="xMidYMid meet">
 <g fill="#0e706d">
  <path d="M173.68 288.87 c4.25 -4.44 30.22 -30.57 57.76 -58.11 49.85 -49.85 50.05 -50.05 52.34 -50.34 3.22 -0.49 4.69 0 6.69 2.20 3.32 3.56 4.74 5.52 4.05 5.76 -0.29 0.10 -0.59 0.78 -0.59 1.46 -0.05 1.95 -0.78 3.03 -5.62 7.96 -3.71 3.76 -4.44 4.30 -4.54 3.42 -0.10 -0.54 -0.29 -1.03 -0.49 -1.03 -0.20 0 -22.12 21.73 -48.68 48.34 l-48.34 48.34 -10.16 0 -10.21 0 7.76 -8.01z"/>
 </g>
 <g fill="#156167">
  <path d="M227.29 318.95 c-2.54 -1.56 -5.13 -5.18 -5.13 -7.13 0 -2.78 0.83 -4.30 4.25 -7.47 2.59 -2.44 3.37 -2.93 3.91 -2.49 0.59 0.44 4.79 -3.52 21.78 -20.51 20.46 -20.41 21.14 -21.09 22.95 -21.09 1.95 0 3.27 0.88 3.27 2.15 0 0.44 0.39 0.78 0.88 0.78 0.49 0 1.12 0.24 1.37 0.49 0.29 0.29 1.81 0.73 3.37 0.98 1.56 0.24 3.03 0.73 3.22 1.07 0.29 0.44 -3.42 4.49 -11.23 12.35 -6.40 6.45 -16.65 16.80 -22.80 23 -6.15 6.20 -12.99 12.94 -15.19 14.99 -3.96 3.71 -4 3.76 -6.59 3.76 -1.66 0 -3.13 -0.34 -4.05 -0.88z"/>
  <path d="M174.07 288.57 c1.03 -1.07 2.15 -1.95 2.39 -1.95 0.29 0 -0.39 0.88 -1.42 1.95 -1.03 1.07 -2.15 1.95 -2.39 1.95 -0.29 0 0.39 -0.88 1.42 -1.95z"/>
  <path d="M322.07 284.42 c-1.46 -0.49 -5.03 -3.76 -14.45 -13.18 -11.08 -11.08 -12.60 -12.40 -13.18 -11.72 -0.59 0.68 -1.03 0.39 -4.25 -2.78 -4.30 -4.25 -4.93 -5.32 -5.32 -9.03 -0.24 -2.44 -0.15 -3.08 0.88 -4.54 2.05 -3.03 3.91 -3.91 8.25 -3.91 3.42 0 3.86 0.10 3.86 0.88 0 0.54 6.69 7.57 15.92 16.75 8.74 8.69 16.31 16.65 16.85 17.63 1.71 3.37 0.83 7.03 -2.25 9.42 -1.86 1.37 -3.47 1.51 -6.30 0.49z"/>
 </g>
 <g fill="#073e4d">
  <path d="M214.94 306.49 l-8.89 -8.89 0 -8.69 c0 -7.47 0.10 -8.69 0.78 -8.98 0.54 -0.20 3.71 2.64 11.08 9.91 13.28 13.13 12.79 12.74 13.82 11.87 0.49 -0.39 0.73 -0.44 0.63 -0.15 -0.10 0.29 -1.76 1.86 -3.66 3.47 -3.96 3.42 -5.32 5.71 -4.93 8.50 0.15 1.07 0.20 1.90 0.15 1.90 0 0 -4.05 -4 -8.98 -8.94z"/>
  <path d="M278.81 254.98 c0 -0.20 1.12 -1.46 2.44 -2.78 l2.44 -2.39 0 -25.20 0 -25.20 3.71 -3.61 c3.96 -3.96 5.08 -5.57 5.08 -7.57 0 -1.86 1.27 -1.51 3.47 0.83 l1.86 2.10 0.05 25.29 c0 24.85 0 25.29 -0.93 24.76 -1.71 -0.88 -5.13 -0.59 -6.93 0.63 -2.29 1.51 -3.91 4.10 -3.56 5.52 0.49 1.86 -0.20 3.52 -2.34 5.86 -1.56 1.71 -2.29 2.15 -3.61 2.15 -0.93 0 -1.66 -0.20 -1.66 -0.39z"/>
 </g>
 <g fill="#10575e">
  <path d="M255.32 278.17 c13.57 -13.57 24.80 -24.61 24.95 -24.51 0.49 0.29 3.66 -3.17 4.59 -4.98 0.93 -1.81 1.76 -2.10 1.76 -0.59 0 1.66 0.88 2.93 4.79 6.93 l3.76 3.76 -12.94 12.84 c-7.08 7.03 -9.23 9.03 -4.74 4.39 4.49 -4.59 8.15 -8.59 8.15 -8.84 0 -0.24 -0.44 -0.59 -0.98 -0.73 -0.54 -0.15 -0.98 -0.05 -0.98 0.20 0 0.59 -1.71 0.29 -2.64 -0.54 -0.63 -0.49 -0.98 -0.49 -1.37 -0.10 -0.83 0.83 -1.61 0.73 -0.93 -0.10 0.39 -0.49 0.44 -0.78 0.05 -1.03 -0.24 -0.15 -0.49 -0.10 -0.49 0.15 0 0.24 -0.34 0.44 -0.73 0.44 -0.39 0 -0.73 -0.39 -0.73 -0.88 0 -0.59 -0.24 -0.78 -0.73 -0.63 -0.39 0.20 -0.73 0.05 -0.73 -0.24 0 -0.29 0.34 -0.54 0.78 -0.54 0.68 0 0.63 -0.10 -0.05 -0.83 -0.68 -0.63 -1.03 -0.68 -1.71 -0.24 -0.68 0.44 -0.98 0.39 -1.12 -0.05 -0.15 -0.34 -9.47 8.64 -20.75 19.92 -11.33 11.28 -20.85 20.56 -21.19 20.65 -0.34 0.10 10.45 -10.89 23.97 -24.46z"/>
 </g>
</svg>
